<?xml version="1.0" encoding="UTF-8"?><svg id="Layer_2" xmlns="http://www.w3.org/2000/svg" viewBox="0 0 24.14 22.92"><defs><style>.cls-1{fill:#1d1d1b;}</style></defs><g id="Layer_1-2"><g><path class="cls-1" d="M9.6,9.28c.6-.86,3.45-4.89,6.92-3.21,.28,.13,.5,.45,1.08,.61,.57,.16,1.14,.09,1.51-.03,1.2-.39,2-1.84,1.96-3.07-.05-1.69-1.71-3.17-3.27-3.51-4.16-.9-7.73,5.59-8.46,8.69-.13,.57-.43,1.5,.26,.5Z"/><path class="cls-1" d="M10.79,12.71c-.73-.76-4.1-4.36-1.75-7.42,.19-.24,.54-.4,.82-.94,.27-.53,.32-1.09,.27-1.48-.14-1.25-1.4-2.33-2.61-2.54C5.85,.04,4.07,1.37,3.42,2.83c-1.72,3.89,3.92,8.69,6.82,10.03,.53,.24,1.39,.72,.55-.16Z"/><path class="cls-1" d="M13.11,13.07c-.94,.46-5.4,2.57-7.6-.59-.18-.25-.21-.63-.64-1.07-.42-.42-.94-.64-1.33-.71-1.23-.25-2.65,.63-3.21,1.71-.78,1.5-.06,3.6,1.13,4.66,3.19,2.82,9.48-1.08,11.64-3.43,.39-.43,1.11-1.1,.02-.57Z"/><path class="cls-1" d="M11.77,8.33c1.05,.05,5.97,.35,6.37,4.18,.03,.31-.12,.66,.05,1.24,.17,.57,.52,1.01,.82,1.27,.96,.81,2.62,.73,3.64,.05,1.4-.93,1.79-3.12,1.25-4.63-1.43-4.01-8.83-3.62-11.85-2.6-.55,.19-1.5,.43-.29,.49Z"/><path class="cls-1" d="M14.06,9.86c.25,1.02,1.35,5.83-2.22,7.29-.28,.12-.67,.07-1.18,.4-.5,.32-.82,.79-.98,1.14-.51,1.15,.04,2.72,.98,3.51,1.29,1.09,3.5,.84,4.79-.1,3.45-2.5,.99-9.49-.84-12.1-.33-.48-.84-1.32-.55-.14Z"/></g></g></svg>