<?xml version="1.0" encoding="UTF-8"?><svg id="Layer_2" xmlns="http://www.w3.org/2000/svg" viewBox="0 0 73.08 50.54"><defs><style>.cls-1{fill:#1d1d1b;}</style></defs><g id="Layer_1-2"><g><path class="cls-1" d="M.58,21.55V12.56H5.83v.86H1.56v7.26H5.95v.88H.58Z"/><path class="cls-1" d="M10.11,17.94h-1.8v3.61h-.98V12.56h5.74v5.39h-1.83l2.28,3.61h-1.14l-2.27-3.61Zm1.98-4.52h-3.78v3.67h3.78v-3.67Z"/><path class="cls-1" d="M15.01,12.56h5.07v.86h-4.09v3.14h3.85v.86h-3.85v3.25h4.15v.88h-5.13V12.56Z"/><path class="cls-1" d="M23.36,13.42h-2.53v-.86h6.02v.86h-2.51v8.13h-.98V13.42Z"/><path class="cls-1" d="M33.54,12.56l.79,9h-1.02l-.24-2.83h-4.27l-.24,2.83h-1.01l.79-9h5.19Zm-4.67,5.29h4.13l-.38-4.43h-3.36l-.38,4.43Z"/><path class="cls-1" d="M41.28,21.55l-3.62-8.13h-.61v8.13h-.98V12.56h2.27l3.61,8.12h.61V12.56h.98v9h-2.25Z"/><path class="cls-1" d="M.58,26.96h.98v4.04H6.16v-4.04h.98v9h-.98v-4.08H1.56v4.08H.58v-9Z"/><path class="cls-1" d="M8.72,31.45c0-2.69,1.93-4.69,4.57-4.69s4.57,2,4.57,4.69-1.94,4.69-4.57,4.69-4.57-2-4.57-4.69Zm8.13,0c0-2.18-1.49-3.8-3.56-3.8s-3.56,1.62-3.56,3.8,1.49,3.79,3.56,3.79,3.56-1.61,3.56-3.79Z"/><path class="cls-1" d="M21.41,30.53l1.38,.82c1.06,.62,1.67,1.33,1.67,2.37,0,1.46-1.07,2.42-2.73,2.42-1.75,0-2.69-1.14-2.87-2.61l.88-.25c.13,1,.77,1.97,2.04,1.97,1.07,0,1.68-.61,1.68-1.5,0-.59-.32-1.12-1.19-1.61l-1.28-.75c-1.03-.6-1.79-1.15-1.79-2.4s.94-2.22,2.51-2.22c1.49,0,2.38,.78,2.66,2.1l-.85,.25c-.24-.98-.9-1.47-1.85-1.47s-1.49,.54-1.49,1.29,.42,1.14,1.24,1.6Z"/><path class="cls-1" d="M32.31,29.75c0,1.61-1.21,2.79-2.94,2.79h-2.3v3.41h-.98v-9h3.29c1.73,0,2.94,1.17,2.94,2.79Zm-1.01,.01c0-1.14-.82-1.94-2.03-1.94h-2.21v3.87h2.21c1.21,0,2.03-.83,2.03-1.93Z"/><path class="cls-1" d="M33.67,26.96h.98v9h-.98v-9Z"/><path class="cls-1" d="M38.39,27.82h-2.53v-.86h6.02v.86h-2.51v8.13h-.98v-8.13Z"/><path class="cls-1" d="M49.11,26.96v9h-.98v-3.55h-4.07v3.55h-.98v-9h6.03Zm-5.05,4.57h4.07v-3.71h-4.07v3.71Z"/><path class="cls-1" d="M51.21,26.96h.98v8.12h3.87v.88h-4.86v-9Z"/><path class="cls-1" d="M57.27,26.96h.98v9h-.98v-9Z"/><path class="cls-1" d="M61.99,27.82h-2.53v-.86h6.02v.86h-2.51v8.13h-.98v-8.13Z"/><path class="cls-1" d="M68.7,32.47c-1.56-.2-2.51-1.39-2.51-3.13v-2.39h.98v2.46c0,1.34,.76,2.24,2.01,2.24s2.02-.9,2.02-2.24v-2.46h.98v2.39c0,1.74-.96,2.93-2.51,3.13v3.48h-.98v-3.48Z"/><path class="cls-1" d="M2.55,44.93l1.38,.82c1.06,.62,1.67,1.33,1.67,2.38,0,1.46-1.07,2.42-2.73,2.42-1.75,0-2.69-1.14-2.87-2.62l.88-.25c.13,1,.77,1.97,2.04,1.97,1.07,0,1.68-.61,1.68-1.5,0-.59-.32-1.12-1.19-1.61l-1.28-.76c-1.03-.6-1.79-1.15-1.79-2.4s.94-2.22,2.51-2.22c1.49,0,2.38,.78,2.66,2.1l-.85,.25c-.24-.98-.9-1.48-1.85-1.48s-1.49,.54-1.49,1.3,.42,1.14,1.24,1.59Z"/><path class="cls-1" d="M7.24,41.35h5.07v.86h-4.09v3.14h3.85v.86h-3.85v3.25h4.15v.88H7.24v-9Z"/><path class="cls-1" d="M16.8,46.64h-1.8v3.71h-.98v-9h3.21c1.73,0,2.91,1.15,2.91,2.64,0,1.31-.9,2.35-2.28,2.59l2.34,3.77h-1.16l-2.24-3.71Zm2.34-2.64c0-1-.76-1.79-2-1.79h-2.13v3.56h2.13c1.25,0,2-.83,2-1.78Z"/><path class="cls-1" d="M25.04,50.35h-1.25l-3.13-9h1.06l2.67,8.04h.05l2.71-8.04h1.02l-3.13,9Z"/><path class="cls-1" d="M29.44,41.35h.98v9h-.98v-9Z"/><path class="cls-1" d="M39.54,43.55c-.65-.92-1.71-1.5-2.94-1.5-2.06,0-3.59,1.62-3.59,3.8s1.52,3.79,3.59,3.79c1.22,0,2.27-.58,2.91-1.49l.66,.59c-.78,1.1-2.04,1.8-3.57,1.8-2.69,0-4.59-2-4.59-4.69s1.95-4.69,4.59-4.69c1.55,0,2.83,.71,3.62,1.82l-.68,.56Z"/><path class="cls-1" d="M41.52,41.35h5.07v.86h-4.09v3.14h3.85v.86h-3.85v3.25h4.15v.88h-5.13v-9Z"/><path class="cls-1" d="M50.28,44.93l1.38,.82c1.06,.62,1.67,1.33,1.67,2.38,0,1.46-1.07,2.42-2.73,2.42-1.75,0-2.69-1.14-2.87-2.62l.88-.25c.13,1,.77,1.97,2.04,1.97,1.07,0,1.68-.61,1.68-1.5,0-.59-.32-1.12-1.19-1.61l-1.28-.76c-1.03-.6-1.79-1.15-1.79-2.4s.94-2.22,2.51-2.22c1.49,0,2.38,.78,2.66,2.1l-.85,.25c-.24-.98-.9-1.48-1.85-1.48s-1.49,.54-1.49,1.3,.42,1.14,1.24,1.59Z"/></g><g><path class="cls-1" d="M58.54,9.28c.6-.86,3.45-4.89,6.92-3.21,.28,.13,.5,.45,1.08,.61,.57,.16,1.14,.09,1.51-.03,1.2-.39,2-1.84,1.96-3.07-.05-1.69-1.71-3.17-3.27-3.51-4.16-.9-7.73,5.59-8.46,8.69-.13,.57-.43,1.5,.26,.5Z"/><path class="cls-1" d="M59.73,12.71c-.73-.76-4.1-4.36-1.75-7.42,.19-.24,.54-.4,.82-.94,.27-.53,.32-1.09,.27-1.48-.14-1.25-1.4-2.33-2.61-2.54-1.66-.29-3.45,1.04-4.09,2.5-1.72,3.89,3.92,8.69,6.82,10.03,.53,.24,1.39,.72,.55-.16Z"/><path class="cls-1" d="M62.05,13.07c-.94,.46-5.4,2.57-7.6-.59-.18-.25-.21-.63-.64-1.07-.42-.42-.94-.64-1.33-.71-1.23-.25-2.65,.63-3.21,1.71-.78,1.5-.06,3.6,1.13,4.66,3.19,2.82,9.48-1.08,11.64-3.43,.39-.43,1.11-1.1,.02-.57Z"/><path class="cls-1" d="M60.71,8.33c1.05,.05,5.97,.35,6.37,4.18,.03,.31-.12,.66,.05,1.24,.17,.57,.52,1.01,.82,1.27,.96,.81,2.62,.73,3.64,.05,1.4-.93,1.79-3.12,1.25-4.63-1.43-4.01-8.83-3.62-11.85-2.6-.55,.19-1.5,.43-.29,.49Z"/><path class="cls-1" d="M62.99,9.86c.25,1.02,1.35,5.83-2.22,7.29-.28,.12-.67,.07-1.18,.4-.5,.32-.82,.79-.98,1.14-.51,1.15,.04,2.72,.98,3.51,1.29,1.09,3.5,.84,4.79-.1,3.45-2.5,.99-9.49-.84-12.1-.33-.48-.84-1.32-.55-.14Z"/></g></g></svg>